<svg xmlns="http://www.w3.org/2000/svg" viewBox="0 0 40 40">
        <defs>
          <clipPath id="squareClip">
            <rect x="0" y="0" width="40" height="40" rx="15" />
          </clipPath>
        </defs>
        <g clip-path="url(#squareClip)">
          <rect x="0" y="0" width="40" height="40" fill="#FFFFFF" />
          <g transform="translate(20 20)">
            <g transform="scale(0.08)">
              <g transform="translate(-128 -128)">
                <path d="M243.31,90.91l-128.4,128.4a16,16,0,0,1-22.62,0l-71.62-72a16,16,0,0,1,0-22.61l20-20a16,16,0,0,1,22.58,0L104,144.22l96.76-95.57a16,16,0,0,1,22.59,0l19.95,19.54A16,16,0,0,1,243.31,90.91Z" fill="#000104"></path>
              </g>
            </g>
          </g>
        </g>
      </svg>